<svg xmlns="http://www.w3.org/2000/svg" viewBox="0 0 63.42 63.06"><defs><style>.cls-1{fill:#fff;}</style></defs><title>cmenuicon</title><g id="Layer_2" data-name="Layer 2"><g id="Layer_6" data-name="Layer 6"><path class="cls-1" d="M62.55,13.56,57.12,24.13a2.72,2.72,0,0,1-2.84,1.45l-12-1.84A2.72,2.72,0,0,1,40,21.46l-1.84-12a2.72,2.72,0,0,1,1.45-2.84L50.51,1.08A19.31,19.31,0,0,0,24.86,20.76a2.65,2.65,0,0,1-.79,2.06L3.33,43.56A11.43,11.43,0,0,0,19.5,59.73L39.94,39.29a2.66,2.66,0,0,1,2.14-.79A19.3,19.3,0,0,0,62.55,13.56ZM9.25,58.17a4.32,4.32,0,1,1,4.32-4.32A4.32,4.32,0,0,1,9.25,58.17Z"/></g></g></svg>