<svg xmlns="http://www.w3.org/2000/svg" viewBox="0 0 263.79 224.39"><defs><style>.cls-1{fill:#fff;}</style></defs><title>discovericon</title><g id="Layer_2" data-name="Layer 2"><g id="UNEDITABLE"><g id="Main_Icons" data-name="Main Icons"><path class="cls-1" d="M62.45,24.15c5.16-.71,14.37-1.79,19.45-1.36a47.75,47.75,0,0,1,15.33,3.83,5.61,5.61,0,0,0,7.9-4.94l.2-6.47a9.23,9.23,0,0,0-2.89-7C97.18,3.26,90.89.29,84,0,76.22-.29,68.84,3,62.7,8.75a6.31,6.31,0,0,0-1.91,3.53l-1.47,8.63A2.79,2.79,0,0,0,62.45,24.15Z"/><path class="cls-1" d="M166.57,26.62a47.75,47.75,0,0,1,15.33-3.83c5.08-.43,14.28.65,19.45,1.36a2.79,2.79,0,0,0,3.13-3.24L203,12.28a6.31,6.31,0,0,0-1.91-3.53C195,3,187.58-.29,179.75,0c-6.85.27-13.14,3.24-18.4,8.16a9.23,9.23,0,0,0-2.89,7l.2,6.47A5.61,5.61,0,0,0,166.57,26.62Z"/><path class="cls-1" d="M257.88,150.23l-.61-3.18s-3.18-24.06-6.58-34.27c-1.31-3.92-10.57-11.65-17.61-15.73-.64-.37-1.28-.73-1.93-1.08l-6.56-44.54c-1.31-5.22-4.95-8.1-7.68-10.37a47.52,47.52,0,0,0-34.57-11c-15.49,1.34-38.69,12.21-36.08,34.4a41,41,0,0,0-5.4-1.38,59.44,59.44,0,0,0-8.31-.58h-1.31a59.44,59.44,0,0,0-8.31.58,41,41,0,0,0-5.4,1.38c2.61-22.19-20.59-33.06-36.08-34.4A47.52,47.52,0,0,0,46.89,41c-2.73,2.27-6.37,5.15-7.68,10.37L32.65,96c-.65.35-1.29.71-1.93,1.08-7,4.08-16.31,11.81-17.61,15.73C9.7,123,6.52,147,6.52,147l-.61,3.18s-6.52,27.44-5.86,33,5.31,16.06,10.9,22.14c10.65,11.57,26.95,19,45.23,19a64.58,64.58,0,0,0,25.87-5.33,59.79,59.79,0,0,0,10.09-5.61c13.47-9.32,22.79-18.43,20.17-52.37a69.09,69.09,0,0,0,7.74,1.92,58.48,58.48,0,0,0,7.11,1.1,40,40,0,0,0,4.07.25l.65,0,.65,0a40,40,0,0,0,4.07-.25,58.48,58.48,0,0,0,7.11-1.1,69.09,69.09,0,0,0,7.74-1.92c-2.61,33.94,6.7,43,20.17,52.37a59.77,59.77,0,0,0,10.09,5.61,64.58,64.58,0,0,0,25.87,5.33c18.28,0,34.58-7.41,45.23-19,5.59-6.08,10.24-16.54,10.9-22.14S257.88,150.23,257.88,150.23Zm-126-22.44c9,0,16.32,5.26,16.32,11.75s-7.31,11.75-16.32,11.75-16.32-5.26-16.32-11.75S122.88,127.79,131.9,127.79ZM56.18,209.37c-22.35,0-40.47-12.86-40.47-28.72s18.12-28.72,40.47-28.72,40.47,12.86,40.47,28.72S78.53,209.37,56.18,209.37Zm151.43,0c-22.35,0-40.47-12.86-40.47-28.72s18.12-28.72,40.47-28.72,40.47,12.86,40.47,28.72S230,209.37,207.61,209.37Z"/></g></g></g></svg>