<svg xmlns="http://www.w3.org/2000/svg" viewBox="0 0 203.78 158"><defs><style>.cls-1{fill:#fff;}</style></defs><title>genreicon</title><g id="Layer_2" data-name="Layer 2"><g id="UNEDITABLE"><g id="Main_Icons" data-name="Main Icons"><path class="cls-1" d="M177.15,10.61h-2.07A30.26,30.26,0,0,0,152.07,0H54.71a30.26,30.26,0,0,0-23,10.61H26.63A26.66,26.66,0,0,0,0,37.24v85.52a26.66,26.66,0,0,0,26.63,26.63h6.95A30.21,30.21,0,0,0,54.71,158h97.36a30.21,30.21,0,0,0,21.13-8.61h3.95a26.66,26.66,0,0,0,26.63-26.63V37.24A26.66,26.66,0,0,0,177.15,10.61ZM195,122.76a17.86,17.86,0,0,1-15.43,17.67,30.13,30.13,0,0,0,2.82-12.75V30.32a30.17,30.17,0,0,0-1.92-10.61A17.87,17.87,0,0,1,195,37.24ZM152.07,148H54.71a20.17,20.17,0,0,1-10.57-3A20.47,20.47,0,0,1,39,140.61a20.23,20.23,0,0,1-4.66-12.93V30.32a20.18,20.18,0,0,1,3.22-10.93,20.36,20.36,0,0,1,12.26-8.78A20.24,20.24,0,0,1,54.71,10h97.36a20.51,20.51,0,0,1,13.31,5,20.46,20.46,0,0,1,3.8,4.39,20.18,20.18,0,0,1,3.22,10.93v97.36a20.23,20.23,0,0,1-4.66,12.93,20.47,20.47,0,0,1-5.09,4.39A20.17,20.17,0,0,1,152.07,148ZM26.63,140.61A17.87,17.87,0,0,1,8.78,122.76V37.24A17.86,17.86,0,0,1,26.43,19.4a30.15,30.15,0,0,0-2,10.92v97.36a30.13,30.13,0,0,0,2.9,12.93Z"/><path class="cls-1" d="M137.38,49.62l-.08-11.27a2,2,0,0,0-2.26-2l-49.8,6.44a2,2,0,0,0-1.74,2V56.08a2,2,0,0,0,.6,1.41v49.13a16.05,16.05,0,0,0-9.22-2.83c-8.15,0-14.75,5.77-14.75,12.88s6.6,12.88,14.75,12.88,14.75-5.77,14.75-12.88a11.34,11.34,0,0,0-.53-3.39V57.63l42.78-5.52v37a16,16,0,0,0-9.29-2.88c-8.15,0-14.75,5.77-14.75,12.88S114.44,112,122.59,112s14.75-5.77,14.75-12.88a11.33,11.33,0,0,0-.46-3.14V51A2,2,0,0,0,137.38,49.62Z"/></g></g></g></svg>