<svg xmlns="http://www.w3.org/2000/svg" viewBox="0 0 213.02 241.13"><defs><style>.cls-1{fill:#fff;}</style></defs><title>instrumenticon</title><g id="Layer_2" data-name="Layer 2"><g id="UNEDITABLE"><g id="Main_Icons" data-name="Main Icons"><path class="cls-1" d="M202.21,7.94C193.62,1,187.56,0,187.56,0L173.18,17.77c-5.79,7.16-3.66,16.64-3.66,16.64L126.07,84.85C114,76.34,104.26,72.78,96,73.74c-9.54,1.1-16,8.19-21.8,15.35-4.19,5.18-4.86,9.6-5.5,13.88-.59,3.94-1.15,7.67-4.52,11.82-1.3,1.61-6.12,2.8-11.7,4.18C41,121.8,23.67,126.08,13.1,139.14c-22,27.14-16.35,53.52,17.17,80.65,12.84,10.39,29.31,21.35,46.65,21.34,12.23,0,24.89-5.45,37-20.41,9.82-12.14,10.91-29.2,11.7-41.66.38-6,.71-11.22,2.05-12.88,3.47-4.29,8.2-6.45,12.77-8.54,4-1.84,7.82-3.58,10.28-6.62,11.29-14,18.41-27.69-7.13-51.87l40.74-52.76a23.11,23.11,0,0,0,14.32-8L213,20.61S210.79,14.89,202.21,7.94ZM116,142.18a16.36,16.36,0,1,1-14.43-26.56,16.65,16.65,0,0,1,1.75-.09A16.36,16.36,0,0,1,116,142.18Z"/></g></g></g></svg>