<svg xmlns="http://www.w3.org/2000/svg" viewBox="0 0 194.13 134.94"><title>messagesicon</title><g id="Layer_2" data-name="Layer 2"><g id="UNEDITABLE"><g id="Main_Icons" data-name="Main Icons"><path d="M194.13,9.93s0-.07,0-.11a10,10,0,0,0-10-9.82H10A10,10,0,0,0,0,9.82s0,.07,0,.11S0,10,0,10V124.94a10,10,0,0,0,10,10H184.13a10,10,0,0,0,10-10V10S194.13,10,194.13,9.93ZM100,66.93a5,5,0,0,1-5.77,0L13.66,10H180.47Zm-90,58V19.66l65.09,46L32.2,96A5,5,0,0,0,38,104.12L83.75,71.8l4.66,3.29a15,15,0,0,0,17.32,0l5-3.54,46.13,32.57A5,5,0,0,0,162.63,96L119.4,65.43l64.73-45.77V124.94Z"/></g></g></g></svg>