<svg xmlns="http://www.w3.org/2000/svg" viewBox="0 0 274.5 239.95"><defs><style>.cls-1{fill:#fff;}</style></defs><title>moodsicon</title><g id="Layer_2" data-name="Layer 2"><g id="UNEDITABLE"><g id="Main_Icons" data-name="Main Icons"><path class="cls-1" d="M271.45,84.56c-.91-4.55,1.06-13.79-18.34-7.12s-64.71,8.33-81.68,6.21c-1.89,1.87-7.32,29.59-15.15,40.92,13.34-1.82,18.49,2.42,16.06,8.49-5.46,13.34-19.09,15.76-28.19,8.49-1.82,3.94-18.79,20.91-29.7,25.16,6.06,28.49,32.73,66.07,67,72.13,2.42.61,14.24,1.82,17,.61C263.88,226.09,282.67,144.57,271.45,84.56ZM224.29,203.09a2.32,2.32,0,0,1-3.55,1.55,58.33,58.33,0,0,0-59.68-.08,2.42,2.42,0,0,1-3.7-1.61,33.95,33.95,0,1,1,66.93.13Zm12.92-60.95c-15.69,12.71-35.84-11.6-23.64-17.28S252,130.12,237.21,142.14Z"/><path class="cls-1" d="M162.35,11.51c-.82-4.56,1.54-15-17.73-8C115.07,14.24,34.26,10.77,14.44,1.21c-9-4.33-10.91,3.94-12,9.55C-11.77,116.23,38.69,158.81,72.94,164.87c2.42.61,14.24,1.82,17,.61C153.25,152.45,173.56,73.95,162.35,11.51ZM56.42,53.79c20.19,19.2-3.85,20.62-14.24,17C18.84,62.58,44,42,56.42,53.79Zm26.18,89a33.81,33.81,0,0,1-33.34-41.41,1.45,1.45,0,0,1,2.44-.7c5.45,5.55,17,9.39,30.49,9.39s24.81-3.76,30.32-9.22a1.58,1.58,0,0,1,2.66.77A33.82,33.82,0,0,1,82.6,142.74Zm40.81-72C113,74.41,89,73,109.16,53.79,121.58,42,146.74,62.58,123.4,70.77Z"/></g></g></g></svg>