<svg xmlns="http://www.w3.org/2000/svg" viewBox="0 0 37.99 49.96"><defs><style>.cls-1{fill:#fff;}</style></defs><title>profileicon</title><g id="Layer_2" data-name="Layer 2"><g id="Layer_6" data-name="Layer 6"><path class="cls-1" d="M19,24.43c5.55,0,10.06-5.47,10.06-12.22S27.58,0,19,0,8.94,5.47,8.94,12.22,13.44,24.43,19,24.43Z"/><path class="cls-1" d="M38,42.59c-.19-11.75-1.72-15.1-13.47-17.22,0,0-1.65,2.11-5.51,2.11s-5.51-2.11-5.51-2.11C1.87,27.47.24,30.77,0,42.21c0,.93,0,1,0,.88,0,.2,0,.58,0,1.23C0,44.32,2.8,50,19,50s19-5.64,19-5.64c0-.42,0-.71,0-.91A7.57,7.57,0,0,1,38,42.59Z"/></g></g></svg>