<svg xmlns="http://www.w3.org/2000/svg" viewBox="0 0 536.68 121.67"><defs><style>.cls-1{fill:#fff;}.cls-2{fill:#262626;}.cls-3{fill:#f2f2f2;}.cls-4{fill:#a53333;}</style></defs><title>rawlogo</title><g id="Layer_2" data-name="Layer 2"><g id="Home"><path class="cls-1" d="M0,83.07a19.75,19.75,0,0,1,1.74-8.25A23.67,23.67,0,0,1,6.32,68,20.42,20.42,0,0,1,13,63.45a20.71,20.71,0,0,1,8.25-1.65,21.86,21.86,0,0,1,8.52,1.65A20.22,20.22,0,0,1,36.58,68,21,21,0,0,1,41,74.82a22.62,22.62,0,0,1,0,16.5A19.94,19.94,0,0,1,36.58,98a22.13,22.13,0,0,1-6.78,4.58,20.88,20.88,0,0,1-8.52,1.74A19.8,19.8,0,0,1,13,102.59,22.06,22.06,0,0,1,1.74,91.32,19.75,19.75,0,0,1,0,83.07Z"/><path class="cls-1" d="M54.26,18.17a4.89,4.89,0,0,1,1.83-4A6.78,6.78,0,0,1,59.95,13h19.8q2.57,0,3.3,1.74a40.93,40.93,0,0,0,1.83,3.76L88,26.24l4.22-5A43.83,43.83,0,0,1,97,16.52a23.49,23.49,0,0,1,5.59-3.58,16,16,0,0,1,6.69-1.37A28.86,28.86,0,0,1,122,14a88.34,88.34,0,0,1,10.91,6.51q4.77,3.12,1.83,7.7L120.63,48.42a7.59,7.59,0,0,1-3.67,3,3.9,3.9,0,0,1-4.22-1q-2.75-2.2-4.86-3.58A8.69,8.69,0,0,0,103,45.49a9,9,0,0,0-8,3.94,15.54,15.54,0,0,0-2.66,8.89V97.19q0,5.32-5.68,5.32H59.76q-5.5,0-5.5-5.32Z"/><path class="cls-1" d="M129.25,58v-.73a48.37,48.37,0,0,1,3.3-17.78,47.12,47.12,0,0,1,9.07-14.76,43.31,43.31,0,0,1,13.48-10A38.3,38.3,0,0,1,171.78,11,31,31,0,0,1,181,12.21a28.68,28.68,0,0,1,6.42,2.84,25,25,0,0,1,4.49,3.48l3.3,3.3a55.86,55.86,0,0,1,2.66-7.33q1-2,4.13-2h20a6.23,6.23,0,0,1,3.76,1.28,4.48,4.48,0,0,1,1.74,3.85V97.55a4.47,4.47,0,0,1-1.74,3.85,6.21,6.21,0,0,1-3.76,1.28H202q-3.12,0-4.12-2a55.5,55.5,0,0,1-2.66-7.33l-3.3,3.3a24.93,24.93,0,0,1-4.49,3.48A28.46,28.46,0,0,1,181,103a31,31,0,0,1-9.26,1.19,38.32,38.32,0,0,1-16.68-3.67,43.27,43.27,0,0,1-13.48-10,47.08,47.08,0,0,1-9.07-14.76A48.36,48.36,0,0,1,129.25,58Zm61.42.55a12.94,12.94,0,0,0-2.93-8.62,9.78,9.78,0,0,0-7.88-3.48,10.05,10.05,0,0,0-8,3.48,12.68,12.68,0,0,0-3,8.62,12.25,12.25,0,0,0,3,8.62,10.3,10.3,0,0,0,8,3.3,10,10,0,0,0,7.88-3.3A12.49,12.49,0,0,0,190.66,58.5Z"/><path class="cls-1" d="M363.36,98.47a7.12,7.12,0,0,1-2.57,3.3,3,3,0,0,1-2.2.73H322.66a3.69,3.69,0,0,1-2.38-.73,16.12,16.12,0,0,1-1.37-1.56,4.09,4.09,0,0,1-.83-1.74l-5.5-18.33-5.32,18.33a8,8,0,0,1-2.38,3.3,3.7,3.7,0,0,1-2.38.73H266.75a4,4,0,0,1-2.57-.73,16.12,16.12,0,0,1-1.37-1.56,4.09,4.09,0,0,1-.83-1.74l-30.8-81.58q-1.28-4,2.38-4h35.2a6,6,0,0,1,6.05,4L284.9,57.77,297.18,16.7q1.28-4,6.05-4h29q4,0,2.38,4l-3.12,11.92,9,29.15L350.71,16.7a6,6,0,0,1,6.05-4H392q3.67,0,2.38,4Z"/><circle class="cls-2" cx="475.85" cy="60.83" r="58.33"/><path class="cls-3" d="M475.85,121.67a60.83,60.83,0,1,1,60.83-60.83A60.9,60.9,0,0,1,475.85,121.67ZM475.85,5a55.83,55.83,0,1,0,55.83,55.83A55.9,55.9,0,0,0,475.85,5Z"/><circle class="cls-4" cx="475.85" cy="60.83" r="19.44"/></g></g></svg>