<svg xmlns="http://www.w3.org/2000/svg" viewBox="0 0 188 188.03"><title>settingicon</title><g id="Layer_2" data-name="Layer 2"><g id="UNEDITABLE"><g id="Main_Icons" data-name="Main Icons"><g id="settings"><path d="M93.88,188c-2.81,0-5.6,0-8.35-.11-7.72-.21-13.83-5.67-15.21-13.59-.49-2.78-1-6-1.56-9.39-2.19-.85-4.4-1.76-6.71-2.76-2.26,1.65-4.77,3.43-7.77,5.51-6.93,4.82-15,4.23-21-1.54-3.77-3.61-7.46-7.3-11-11-5.73-6-6.32-14-1.55-20.88,1.83-2.63,3.65-5.18,5.44-7.59-1.18-2.61-2.15-4.91-3-7.08-2.88-.47-5.74-1-8.61-1.46l-.67-.12C5.4,116.59.08,110.33,0,101.73c0-5.45,0-10.31,0-14.84A16,16,0,0,1,13.85,70.66l3.52-.58c1.81-.3,3.68-.6,5.5-.94.47-1.11.93-2.23,1.4-3.41s1-2.44,1.52-3.68c-1.68-2.32-3.33-4.66-4.94-6.93l-.3-.42c-5.32-7.52-4.65-15.56,1.82-22.06q4.85-4.88,9.75-9.72c6.6-6.54,14.69-7.2,22.21-1.8l2.37,1.72c1.52,1.1,3.08,2.24,4.64,3.32,1-.41,2-.83,3-1.28,1.31-.56,2.66-1.14,4-1.69.59-3.72,1.09-6.67,1.59-9.44C71.2,7.09,75.16,2.56,81.46.64l.33-.16,1-.48h21.7l1,.47.33.16a15.93,15.93,0,0,1,11.47,12.9c.52,2.75,1,5.68,1.58,9.35,1.32.52,2.63,1.06,3.9,1.59s2.44,1,3.63,1.48c1.53-1,3.06-2.15,4.56-3.22l2.8-2c7.29-5.14,15.43-4.48,21.76,1.78,3.1,3.06,6.37,6.33,10,10,6.29,6.37,6.94,14.56,1.74,21.91l-2,2.82c-1.09,1.51-2.12,2.95-3.13,4.41.46,1.16.95,2.33,1.45,3.54s1,2.34,1.46,3.55l1.12.17c2.74.41,5.58.83,8.42,1.53A24.28,24.28,0,0,1,182,73.8c3.65,2.41,4.85,6.18,5.73,8.94l.24.74v21l-.23.74c-.71,2.25-2.61,8.24-8.58,10.74a38.43,38.43,0,0,1-7.37,2l-1.36.28c-1.28.27-2.52.46-3.72.64l-1.77.28c-1,2.33-2,4.7-2.94,7.07,1,1.46,2.05,2.91,3.07,4.33q1.08,1.51,2.15,3c5.15,7.3,4.5,15.44-1.74,21.78-3.72,3.78-7,7.09-10.14,10.14-6.31,6.19-14.39,6.84-21.62,1.74l-1.39-1c-2-1.39-4-2.82-6-4.3-2.46,1.07-4.8,2-7.1,2.94l-.05.33c-.54,3.41-1.1,6.93-1.88,10.43a15.42,15.42,0,0,1-14.83,12.21C99.6,188,96.73,188,93.88,188ZM61.62,151.74a7.6,7.6,0,0,1,3.07.68c3.11,1.37,6,2.57,8.89,3.66a7.29,7.29,0,0,1,4.85,6c.56,3.74,1.19,7.41,1.73,10.5s2.72,5.24,5.63,5.32c5.35.15,10.88.14,16.41,0a5.49,5.49,0,0,0,5.34-4.4c.71-3.19,1.22-6.4,1.76-9.81l.27-1.67a7.33,7.33,0,0,1,4.86-6c2.93-1.12,5.89-2.35,9.06-3.74a7.17,7.17,0,0,1,7.69.8c2.24,1.7,4.62,3.37,6.93,5l1.4,1c3.27,2.31,6,2.09,8.86-.71,3.06-3,6.34-6.28,10-10,2.83-2.88,3-5.65.69-9-.7-1-1.4-2-2.11-3-1.34-1.87-2.73-3.81-4.06-5.78a7.44,7.44,0,0,1-.76-6.58c1.33-3.46,2.78-6.92,4.28-10.3a7.53,7.53,0,0,1,5.12-4.09c1.27-.27,2.5-.46,3.69-.64s2.15-.33,3.14-.54l1.45-.3a30.54,30.54,0,0,0,5.5-1.46c.81-.34,1.7-1.06,2.67-3.83V85c-.42-1.27-.89-2.51-1.48-2.91a14.47,14.47,0,0,0-4.34-2c-2.39-.59-4.87-1-7.5-1.35L162,78.39a7,7,0,0,1-5.74-4.63c-.6-1.56-1.24-3.09-1.91-4.72s-1.4-3.35-2.06-5.08a7.65,7.65,0,0,1,.73-6.7c1.34-2,2.75-4,4.11-5.85l2-2.76c2.43-3.44,2.23-6.16-.69-9.11-3.59-3.63-6.83-6.87-9.91-9.91-2.92-2.88-5.6-3.1-9-.72l-2.74,2c-1.95,1.4-4,2.84-6,4.22a7.64,7.64,0,0,1-6.69.69c-1.74-.67-3.46-1.38-5.12-2.07s-3.34-1.38-5-2a7.14,7.14,0,0,1-4.75-5.88c-.64-4.23-1.17-7.45-1.74-10.43a6,6,0,0,0-4.68-5.22l-.5-.16H85l-.49.16c-2.76.79-4.17,2.4-4.71,5.37S78.74,21.79,78.07,26a7.31,7.31,0,0,1-4.82,6c-1.64.62-3.25,1.31-5,2-1.49.64-3,1.3-4.61,1.92A7.62,7.62,0,0,1,57,35.28c-2.11-1.42-4.16-2.91-6.14-4.35l-2.33-1.69c-3.52-2.53-6.23-2.31-9.34.77s-6.48,6.43-9.7,9.67c-3,3-3.23,5.71-.74,9.23l.3.42c1.86,2.64,3.79,5.36,5.72,8a7,7,0,0,1,.84,7.3c-.7,1.58-1.34,3.17-2,4.85s-1.32,3.26-2,4.9a7.63,7.63,0,0,1-5.23,4.29c-2.45.48-4.91.88-7.29,1.27l-3.44.57A6.1,6.1,0,0,0,10,87c0,4.49,0,9.29,0,14.7,0,3.7,1.91,5.9,5.6,6.53l.67.12c3.24.56,6.47,1.12,9.71,1.64a7.44,7.44,0,0,1,6.09,4.94c1,2.65,2.19,5.48,3.78,8.93a7.22,7.22,0,0,1-.81,7.74c-2,2.64-4,5.48-6.08,8.44s-1.89,5.7.56,8.27c3.4,3.57,7,7.15,10.65,10.66,2.64,2.52,5.3,2.7,8.38.56,3.49-2.43,6.28-4.42,8.8-6.28A7.09,7.09,0,0,1,61.62,151.74Zm99.86-24.06h0ZM127.65,26.43h0ZM81.79.55h0Z"/><path d="M93.73,129.67a35.4,35.4,0,1,1,35.4-35.4A35.44,35.44,0,0,1,93.73,129.67Zm0-60.8a25.4,25.4,0,1,0,25.4,25.4A25.43,25.43,0,0,0,93.73,68.87Z"/></g></g></g></g></svg>