<svg xmlns="http://www.w3.org/2000/svg" viewBox="0 0 115.83 108.53"><title>signouticon</title><g id="Layer_2" data-name="Layer 2"><g id="UNEDITABLE"><g id="Main_Icons" data-name="Main Icons"><path d="M72.5,72.3a5,5,0,0,0-5,5V98.53H10V10H67.5V34.43a5,5,0,1,0,10,0V10a10,10,0,0,0-10-10H10A10,10,0,0,0,0,10V98.53a10,10,0,0,0,10,10H67.5a10,10,0,0,0,10-10V77.3A5,5,0,0,0,72.5,72.3Z"/><path d="M115.78,55.33a4.92,4.92,0,0,0-3.37-4.81L90.6,28.72a5,5,0,0,0-7.07,7.07L97.76,50H40a5,5,0,0,0,0,10h59L83.59,75.37a5,5,0,1,0,7.07,7.07L112.3,60.8a4.91,4.91,0,0,0,3.48-5.47Z"/></g></g></g></svg>