<svg xmlns="http://www.w3.org/2000/svg" viewBox="0 0 63.02 56.2"><defs><style>.cls-1{fill:#fff;}</style></defs><title>uploadicon</title><g id="Layer_2" data-name="Layer 2"><g id="Layer_7" data-name="Layer 7"><path class="cls-1" d="M60,39.65a3.06,3.06,0,0,0-3.06,3.06,3,3,0,0,1-.37,1.53H6.48a3,3,0,0,1-.37-1.53A3.06,3.06,0,0,0,0,42.7C0,47,2.68,50.34,6.09,56.2H56.93C60.35,50.34,63,47,63,42.7A3.06,3.06,0,0,0,60,39.65Z"/><path class="cls-1" d="M16.65,22.94,28.17,11.68l-.29,23.55a3.06,3.06,0,0,0,3,3.09h0a3.06,3.06,0,0,0,3.05-3l.29-23.5L45,22.88a3.06,3.06,0,0,0,4.4-4.24L31.38,0l-19,18.57a3.06,3.06,0,1,0,4.27,4.37Z"/></g></g></svg>