<svg id="Layer_1" data-name="Layer 1" xmlns="http://www.w3.org/2000/svg" viewBox="0 0 499.33 105.61"><defs><style>.cls-1{fill:#fff;}.cls-2{fill:#262626;stroke:#f2f3f3;stroke-miterlimit:10;stroke-width:4.34px;}.cls-3{fill:#a53433;}</style></defs><title>DT-Logo</title><path class="cls-1" d="M55.84,86.52a19.67,19.67,0,0,1,1.73-8.22,23.59,23.59,0,0,1,4.56-6.75A20.35,20.35,0,0,1,68.8,67,20.65,20.65,0,0,1,77,65.34,21.79,21.79,0,0,1,85.51,67a20.15,20.15,0,0,1,6.76,4.57,20.9,20.9,0,0,1,4.38,6.75,22.53,22.53,0,0,1,0,16.43,19.82,19.82,0,0,1-4.38,6.66A22,22,0,0,1,85.51,106,20.8,20.8,0,0,1,77,107.7,19.72,19.72,0,0,1,68.8,106,22,22,0,0,1,57.57,94.74,19.66,19.66,0,0,1,55.84,86.52Z" transform="translate(-55.84 -3.29)"/><path class="cls-1" d="M109.87,21.89a4.86,4.86,0,0,1,1.83-4,6.76,6.76,0,0,1,3.83-1.09h19.72q2.55,0,3.29,1.73a40.58,40.58,0,0,0,1.83,3.74l3.1,7.67,4.2-4.93a43.58,43.58,0,0,1,4.75-4.75A23.43,23.43,0,0,1,158,16.69a15.91,15.91,0,0,1,6.66-1.37,28.74,28.74,0,0,1,12.69,2.47,88.05,88.05,0,0,1,10.86,6.48q4.74,3.11,1.83,7.67L176,52a7.56,7.56,0,0,1-3.65,3,3.88,3.88,0,0,1-4.2-1q-2.74-2.19-4.84-3.56a8.65,8.65,0,0,0-4.84-1.37A8.94,8.94,0,0,0,150.5,53a15.47,15.47,0,0,0-2.65,8.85v38.7q0,5.3-5.66,5.29H115.35q-5.48,0-5.48-5.29Z" transform="translate(-55.84 -3.29)"/><path class="cls-1" d="M184.54,61.51v-.73a48.16,48.16,0,0,1,3.29-17.71,46.91,46.91,0,0,1,9-14.7,43.13,43.13,0,0,1,13.42-10,38.16,38.16,0,0,1,16.61-3.65A30.89,30.89,0,0,1,236.11,16a28.48,28.48,0,0,1,6.39,2.83A24.91,24.91,0,0,1,247,22.26l3.29,3.29a55.74,55.74,0,0,1,2.65-7.3q1-2,4.11-2h19.9a6.21,6.21,0,0,1,3.74,1.28,4.47,4.47,0,0,1,1.73,3.84v79.6a4.46,4.46,0,0,1-1.73,3.83,6.19,6.19,0,0,1-3.74,1.28H257q-3.11,0-4.11-2a55.36,55.36,0,0,1-2.65-7.3L247,100a24.71,24.71,0,0,1-4.47,3.47,28.38,28.38,0,0,1-6.39,2.83,30.93,30.93,0,0,1-9.22,1.19,38.14,38.14,0,0,1-16.61-3.65,43.09,43.09,0,0,1-13.42-9.95,46.91,46.91,0,0,1-9-14.7A48.17,48.17,0,0,1,184.54,61.51Zm61.16.55a12.88,12.88,0,0,0-2.92-8.58A9.74,9.74,0,0,0,234.93,50,10,10,0,0,0,227,53.48a12.63,12.63,0,0,0-3,8.58,12.19,12.19,0,0,0,3,8.58,10.26,10.26,0,0,0,7.94,3.29,10,10,0,0,0,7.85-3.29A12.44,12.44,0,0,0,245.7,62.06Z" transform="translate(-55.84 -3.29)"/><path class="cls-1" d="M417.67,101.86a7.08,7.08,0,0,1-2.56,3.29,3,3,0,0,1-2.19.73H377.14a3.67,3.67,0,0,1-2.37-.73,15.81,15.81,0,0,1-1.37-1.55,4.06,4.06,0,0,1-.82-1.73L367.1,83.6l-5.29,18.26a8,8,0,0,1-2.37,3.29,3.68,3.68,0,0,1-2.37.73h-35.6a4,4,0,0,1-2.56-.73,16,16,0,0,1-1.37-1.55,4.06,4.06,0,0,1-.82-1.73L286,20.62q-1.28-4,2.37-4h35.05a6,6,0,0,1,6,4l10,40.71,12.23-40.89q1.28-4,6-4h28.84q4,0,2.37,4l-3.1,11.87,8.95,29,10.22-40.89a6,6,0,0,1,6-4h35.05q3.65,0,2.37,4Z" transform="translate(-55.84 -3.29)"/><circle class="cls-2" cx="446.52" cy="52.81" r="50.64"/><circle class="cls-3" cx="446.52" cy="52.81" r="16.88"/></svg>