<svg xmlns="http://www.w3.org/2000/svg" viewBox="0 0 174.5 174.5"><title>Group</title><g id="Layer_2" data-name="Layer 2"><g id="UNEDITABLE"><g id="Main_Icons" data-name="Main Icons"><path d="M87.25,0A87.26,87.26,0,1,0,174.5,87.25,87.25,87.25,0,0,0,87.25,0Zm55.62,102.78a19.43,19.43,0,1,0-18.41,0c-10.36,2.71-17.77,9.87-17.77,18.27v.45A36.22,36.22,0,0,0,98,118a22.66,22.66,0,1,0-21.47,0,36.22,36.22,0,0,0-8.7,3.49V121c0-8.4-7.4-15.56-17.77-18.27a19.43,19.43,0,1,0-18.41,0c-7.32,1.91-13.15,6-16,11.26a76.43,76.43,0,1,1,143.14,0C156,108.82,150.18,104.69,142.87,102.78Z"/></g></g></g></svg>